<mxfile host="app.diagrams.net" modified="2024-04-26T20:00:20.095Z" agent="Mozilla/5.0 (Windows NT 10.0; Win64; x64) AppleWebKit/537.36 (KHTML, like Gecko) Chrome/124.0.0.0 Safari/537.36" etag="kSpFBse6grxJba0s2XIh" version="24.3.0" type="device">
  <diagram id="C5RBs43oDa-KdzZeNtuy" name="Page-1">
    <mxGraphModel dx="1673" dy="1133" grid="1" gridSize="7" guides="1" tooltips="1" connect="1" arrows="1" fold="1" page="1" pageScale="1" pageWidth="827" pageHeight="1169" math="0" shadow="0">
      <root>
        <mxCell id="WIyWlLk6GJQsqaUBKTNV-0" />
        <mxCell id="WIyWlLk6GJQsqaUBKTNV-1" parent="WIyWlLk6GJQsqaUBKTNV-0" />
        <mxCell id="lOeqmQKc_OwpCuId9KB0-41" value="" style="rounded=0;whiteSpace=wrap;html=1;fontStyle=1" vertex="1" parent="WIyWlLk6GJQsqaUBKTNV-1">
          <mxGeometry x="1218" y="84" width="1330" height="1050" as="geometry" />
        </mxCell>
        <mxCell id="lOeqmQKc_OwpCuId9KB0-42" value="Usuario" style="swimlane;fontStyle=1;align=center;verticalAlign=top;childLayout=stackLayout;horizontal=1;startSize=26;horizontalStack=0;resizeParent=1;resizeParentMax=0;resizeLast=0;collapsible=1;marginBottom=0;whiteSpace=wrap;html=1;rounded=1;" vertex="1" parent="WIyWlLk6GJQsqaUBKTNV-1">
          <mxGeometry x="1722" y="602" width="280" height="170" as="geometry" />
        </mxCell>
        <mxCell id="lOeqmQKc_OwpCuId9KB0-43" value="- id: int&lt;div&gt;nome: String&lt;/div&gt;&lt;div&gt;email: String&amp;nbsp;&lt;/div&gt;&lt;div&gt;senha: String&amp;nbsp;&lt;/div&gt;" style="text;strokeColor=none;fillColor=none;align=left;verticalAlign=top;spacingLeft=4;spacingRight=4;overflow=hidden;rotatable=0;points=[[0,0.5],[1,0.5]];portConstraint=eastwest;whiteSpace=wrap;html=1;rounded=1;" vertex="1" parent="lOeqmQKc_OwpCuId9KB0-42">
          <mxGeometry y="26" width="280" height="84" as="geometry" />
        </mxCell>
        <mxCell id="lOeqmQKc_OwpCuId9KB0-44" value="" style="line;strokeWidth=1;fillColor=none;align=left;verticalAlign=middle;spacingTop=-1;spacingLeft=3;spacingRight=3;rotatable=0;labelPosition=right;points=[];portConstraint=eastwest;strokeColor=inherit;rounded=1;" vertex="1" parent="lOeqmQKc_OwpCuId9KB0-42">
          <mxGeometry y="110" width="280" height="8" as="geometry" />
        </mxCell>
        <mxCell id="lOeqmQKc_OwpCuId9KB0-45" value="+ Login( email: String, senha: String) : boolean&lt;div&gt;+ Cadastro&lt;span style=&quot;background-color: initial;&quot;&gt;( email: String, senha: String) : boolean&lt;/span&gt;&lt;/div&gt;" style="text;strokeColor=none;fillColor=none;align=left;verticalAlign=top;spacingLeft=4;spacingRight=4;overflow=hidden;rotatable=0;points=[[0,0.5],[1,0.5]];portConstraint=eastwest;whiteSpace=wrap;html=1;rounded=1;" vertex="1" parent="lOeqmQKc_OwpCuId9KB0-42">
          <mxGeometry y="118" width="280" height="52" as="geometry" />
        </mxCell>
        <mxCell id="lOeqmQKc_OwpCuId9KB0-46" value="Veiuculo" style="swimlane;fontStyle=1;align=center;verticalAlign=top;childLayout=stackLayout;horizontal=1;startSize=26;horizontalStack=0;resizeParent=1;resizeParentMax=0;resizeLast=0;collapsible=1;marginBottom=0;whiteSpace=wrap;html=1;rounded=1;" vertex="1" parent="WIyWlLk6GJQsqaUBKTNV-1">
          <mxGeometry x="1680" y="343" width="364" height="196" as="geometry" />
        </mxCell>
        <mxCell id="lOeqmQKc_OwpCuId9KB0-47" value="- id: int&amp;nbsp;&lt;div&gt;- marca: String&lt;/div&gt;&lt;div&gt;-modelo: String&lt;/div&gt;&lt;div&gt;- ano: int&lt;/div&gt;&lt;div&gt;- placa: String&lt;/div&gt;" style="text;strokeColor=none;fillColor=none;align=left;verticalAlign=top;spacingLeft=4;spacingRight=4;overflow=hidden;rotatable=0;points=[[0,0.5],[1,0.5]];portConstraint=eastwest;whiteSpace=wrap;html=1;rounded=1;" vertex="1" parent="lOeqmQKc_OwpCuId9KB0-46">
          <mxGeometry y="26" width="364" height="86" as="geometry" />
        </mxCell>
        <mxCell id="lOeqmQKc_OwpCuId9KB0-48" value="" style="line;strokeWidth=1;fillColor=none;align=left;verticalAlign=middle;spacingTop=-1;spacingLeft=3;spacingRight=3;rotatable=0;labelPosition=right;points=[];portConstraint=eastwest;strokeColor=inherit;rounded=1;" vertex="1" parent="lOeqmQKc_OwpCuId9KB0-46">
          <mxGeometry y="112" width="364" height="8" as="geometry" />
        </mxCell>
        <mxCell id="lOeqmQKc_OwpCuId9KB0-49" value="+AdicionarVeiculo(marca: String,, modelo: String, ano: String, ano: int, placa: String)&lt;div&gt;+RemoverVeiculo(marca: String,, modelo: String, ano: String, ano: int, placa: String): void&amp;nbsp;&lt;/div&gt;" style="text;strokeColor=none;fillColor=none;align=left;verticalAlign=top;spacingLeft=4;spacingRight=4;overflow=hidden;rotatable=0;points=[[0,0.5],[1,0.5]];portConstraint=eastwest;whiteSpace=wrap;html=1;rounded=1;" vertex="1" parent="lOeqmQKc_OwpCuId9KB0-46">
          <mxGeometry y="120" width="364" height="76" as="geometry" />
        </mxCell>
        <mxCell id="lOeqmQKc_OwpCuId9KB0-50" value="Diagnostico" style="swimlane;fontStyle=1;align=center;verticalAlign=top;childLayout=stackLayout;horizontal=1;startSize=26;horizontalStack=0;resizeParent=1;resizeParentMax=0;resizeLast=0;collapsible=1;marginBottom=0;whiteSpace=wrap;html=1;rounded=1;" vertex="1" parent="WIyWlLk6GJQsqaUBKTNV-1">
          <mxGeometry x="1722" y="119" width="266" height="154" as="geometry" />
        </mxCell>
        <mxCell id="lOeqmQKc_OwpCuId9KB0-51" value="- id: int&lt;div&gt;- descricao: String&amp;nbsp;&lt;/div&gt;&lt;div&gt;- preco: double&lt;/div&gt;&lt;div&gt;-veiculo: Veiculo&lt;/div&gt;" style="text;strokeColor=none;fillColor=none;align=left;verticalAlign=top;spacingLeft=4;spacingRight=4;overflow=hidden;rotatable=0;points=[[0,0.5],[1,0.5]];portConstraint=eastwest;whiteSpace=wrap;html=1;rounded=1;" vertex="1" parent="lOeqmQKc_OwpCuId9KB0-50">
          <mxGeometry y="26" width="266" height="79" as="geometry" />
        </mxCell>
        <mxCell id="lOeqmQKc_OwpCuId9KB0-52" value="" style="line;strokeWidth=1;fillColor=none;align=left;verticalAlign=middle;spacingTop=-1;spacingLeft=3;spacingRight=3;rotatable=0;labelPosition=right;points=[];portConstraint=eastwest;strokeColor=inherit;rounded=1;" vertex="1" parent="lOeqmQKc_OwpCuId9KB0-50">
          <mxGeometry y="105" width="266" height="8" as="geometry" />
        </mxCell>
        <mxCell id="lOeqmQKc_OwpCuId9KB0-53" value="+ RealizarDiagnostico(veiculo: Veiculo): void&lt;div&gt;+ ObterCusto(): double&lt;/div&gt;" style="text;strokeColor=none;fillColor=none;align=left;verticalAlign=top;spacingLeft=4;spacingRight=4;overflow=hidden;rotatable=0;points=[[0,0.5],[1,0.5]];portConstraint=eastwest;whiteSpace=wrap;html=1;rounded=1;" vertex="1" parent="lOeqmQKc_OwpCuId9KB0-50">
          <mxGeometry y="113" width="266" height="41" as="geometry" />
        </mxCell>
        <mxCell id="lOeqmQKc_OwpCuId9KB0-54" value="Chat" style="swimlane;fontStyle=1;align=center;verticalAlign=top;childLayout=stackLayout;horizontal=1;startSize=26;horizontalStack=0;resizeParent=1;resizeParentMax=0;resizeLast=0;collapsible=1;marginBottom=0;whiteSpace=wrap;html=1;rounded=1;" vertex="1" parent="WIyWlLk6GJQsqaUBKTNV-1">
          <mxGeometry x="1288" y="548" width="343" height="224" as="geometry" />
        </mxCell>
        <mxCell id="lOeqmQKc_OwpCuId9KB0-55" value="&lt;div&gt;- id: int&amp;nbsp;&lt;/div&gt;&lt;div&gt;- mensagem: String&amp;nbsp;&lt;/div&gt;&lt;div&gt;- remetente: Usu치rio&amp;nbsp;&lt;/div&gt;&lt;div&gt;- destinatario: Usu치rio&lt;span style=&quot;white-space:pre&quot;&gt;&#x9;&lt;/span&gt;&lt;/div&gt;&lt;div&gt;&lt;span style=&quot;white-space: pre; white-space: normal;&quot;&gt;&#x9;&lt;/span&gt;&lt;/div&gt;" style="text;strokeColor=none;fillColor=none;align=left;verticalAlign=top;spacingLeft=4;spacingRight=4;overflow=hidden;rotatable=0;points=[[0,0.5],[1,0.5]];portConstraint=eastwest;whiteSpace=wrap;html=1;rounded=1;" vertex="1" parent="lOeqmQKc_OwpCuId9KB0-54">
          <mxGeometry y="26" width="343" height="79" as="geometry" />
        </mxCell>
        <mxCell id="lOeqmQKc_OwpCuId9KB0-56" value="" style="line;strokeWidth=1;fillColor=none;align=left;verticalAlign=middle;spacingTop=-1;spacingLeft=3;spacingRight=3;rotatable=0;labelPosition=right;points=[];portConstraint=eastwest;strokeColor=inherit;rounded=1;" vertex="1" parent="lOeqmQKc_OwpCuId9KB0-54">
          <mxGeometry y="105" width="343" height="8" as="geometry" />
        </mxCell>
        <mxCell id="lOeqmQKc_OwpCuId9KB0-57" value="&lt;div&gt;+EnviarMensagem(remetente: Usu치rio, destinatario: Usu치rio, mensagem: String): void&amp;nbsp;&lt;/div&gt;&lt;div&gt;+ ReceberMensagem(): String&amp;nbsp;&lt;/div&gt;" style="text;strokeColor=none;fillColor=none;align=left;verticalAlign=top;spacingLeft=4;spacingRight=4;overflow=hidden;rotatable=0;points=[[0,0.5],[1,0.5]];portConstraint=eastwest;whiteSpace=wrap;html=1;rounded=1;" vertex="1" parent="lOeqmQKc_OwpCuId9KB0-54">
          <mxGeometry y="113" width="343" height="111" as="geometry" />
        </mxCell>
        <mxCell id="lOeqmQKc_OwpCuId9KB0-58" value="Conserto" style="swimlane;fontStyle=1;align=center;verticalAlign=top;childLayout=stackLayout;horizontal=1;startSize=26;horizontalStack=0;resizeParent=1;resizeParentMax=0;resizeLast=0;collapsible=1;marginBottom=0;whiteSpace=wrap;html=1;rounded=1;" vertex="1" parent="WIyWlLk6GJQsqaUBKTNV-1">
          <mxGeometry x="2163" y="469" width="266" height="182" as="geometry" />
        </mxCell>
        <mxCell id="lOeqmQKc_OwpCuId9KB0-59" value="- id: int&lt;div&gt;- descricao: String&amp;nbsp;&lt;/div&gt;&lt;div&gt;- preco: double&lt;/div&gt;&lt;div&gt;-veiculo: Veiculo&lt;/div&gt;" style="text;strokeColor=none;fillColor=none;align=left;verticalAlign=top;spacingLeft=4;spacingRight=4;overflow=hidden;rotatable=0;points=[[0,0.5],[1,0.5]];portConstraint=eastwest;whiteSpace=wrap;html=1;rounded=1;" vertex="1" parent="lOeqmQKc_OwpCuId9KB0-58">
          <mxGeometry y="26" width="266" height="79" as="geometry" />
        </mxCell>
        <mxCell id="lOeqmQKc_OwpCuId9KB0-60" value="" style="line;strokeWidth=1;fillColor=none;align=left;verticalAlign=middle;spacingTop=-1;spacingLeft=3;spacingRight=3;rotatable=0;labelPosition=right;points=[];portConstraint=eastwest;strokeColor=inherit;rounded=1;" vertex="1" parent="lOeqmQKc_OwpCuId9KB0-58">
          <mxGeometry y="105" width="266" height="8" as="geometry" />
        </mxCell>
        <mxCell id="lOeqmQKc_OwpCuId9KB0-61" value="+ AdcionarVeiculo(veiculo: Veiculos, descrica: String, preco: double)&lt;div&gt;+ RemoverVeiculo(veiculo: Veiculos)&lt;br&gt;&lt;/div&gt;" style="text;strokeColor=none;fillColor=none;align=left;verticalAlign=top;spacingLeft=4;spacingRight=4;overflow=hidden;rotatable=0;points=[[0,0.5],[1,0.5]];portConstraint=eastwest;whiteSpace=wrap;html=1;rounded=1;" vertex="1" parent="lOeqmQKc_OwpCuId9KB0-58">
          <mxGeometry y="113" width="266" height="69" as="geometry" />
        </mxCell>
        <mxCell id="lOeqmQKc_OwpCuId9KB0-62" value="Atendente" style="swimlane;fontStyle=1;align=center;verticalAlign=top;childLayout=stackLayout;horizontal=1;startSize=26;horizontalStack=0;resizeParent=1;resizeParentMax=0;resizeLast=0;collapsible=1;marginBottom=0;whiteSpace=wrap;html=1;rounded=1;" vertex="1" parent="WIyWlLk6GJQsqaUBKTNV-1">
          <mxGeometry x="1337" y="854" width="364" height="168" as="geometry" />
        </mxCell>
        <mxCell id="lOeqmQKc_OwpCuId9KB0-63" value="&lt;div&gt;- id: int&amp;nbsp;&lt;/div&gt;&lt;div&gt;&lt;span style=&quot;background-color: initial;&quot;&gt;- nome: String&amp;nbsp;&lt;/span&gt;&lt;/div&gt;&lt;div&gt;&lt;span style=&quot;background-color: initial;&quot;&gt;- email: String&amp;nbsp;&lt;/span&gt;&lt;/div&gt;&lt;div&gt;&lt;span style=&quot;white-space: normal;&quot;&gt;- senha: String&amp;nbsp;&lt;/span&gt;&lt;/div&gt;&lt;div&gt;&lt;br&gt;&lt;/div&gt;" style="text;strokeColor=none;fillColor=none;align=left;verticalAlign=top;spacingLeft=4;spacingRight=4;overflow=hidden;rotatable=0;points=[[0,0.5],[1,0.5]];portConstraint=eastwest;whiteSpace=wrap;html=1;rounded=1;" vertex="1" parent="lOeqmQKc_OwpCuId9KB0-62">
          <mxGeometry y="26" width="364" height="72" as="geometry" />
        </mxCell>
        <mxCell id="lOeqmQKc_OwpCuId9KB0-64" value="" style="line;strokeWidth=1;fillColor=none;align=left;verticalAlign=middle;spacingTop=-1;spacingLeft=3;spacingRight=3;rotatable=0;labelPosition=right;points=[];portConstraint=eastwest;strokeColor=inherit;rounded=1;" vertex="1" parent="lOeqmQKc_OwpCuId9KB0-62">
          <mxGeometry y="98" width="364" height="20" as="geometry" />
        </mxCell>
        <mxCell id="lOeqmQKc_OwpCuId9KB0-65" value="&lt;div&gt;+ AtenderMensagem(mensagem: String): void&amp;nbsp;&lt;/div&gt;&lt;div&gt;&lt;span style=&quot;white-space: normal;&quot;&gt;+ ResolverProblema(cliente: Usu치rio): void&amp;nbsp;&lt;/span&gt;&lt;/div&gt;&lt;div&gt;&lt;br&gt;&lt;/div&gt;" style="text;strokeColor=none;fillColor=none;align=left;verticalAlign=top;spacingLeft=4;spacingRight=4;overflow=hidden;rotatable=0;points=[[0,0.5],[1,0.5]];portConstraint=eastwest;whiteSpace=wrap;html=1;rounded=1;" vertex="1" parent="lOeqmQKc_OwpCuId9KB0-62">
          <mxGeometry y="118" width="364" height="50" as="geometry" />
        </mxCell>
        <mxCell id="lOeqmQKc_OwpCuId9KB0-66" value="HistoricoDeMensagens" style="swimlane;fontStyle=1;align=center;verticalAlign=top;childLayout=stackLayout;horizontal=1;startSize=26;horizontalStack=0;resizeParent=1;resizeParentMax=0;resizeLast=0;collapsible=1;marginBottom=0;whiteSpace=wrap;html=1;shadow=1;rounded=1;" vertex="1" parent="WIyWlLk6GJQsqaUBKTNV-1">
          <mxGeometry x="1358" y="203" width="245" height="182" as="geometry" />
        </mxCell>
        <mxCell id="lOeqmQKc_OwpCuId9KB0-67" value="&lt;div&gt;- id: int&amp;nbsp;&lt;/div&gt;&lt;div&gt;&lt;span style=&quot;white-space: normal;&quot;&gt;- mensagens: List&amp;lt;String&amp;gt;&amp;nbsp;&lt;/span&gt;&lt;/div&gt;&lt;div&gt;&lt;span style=&quot;white-space: normal;&quot;&gt;- usuario: Usu치rio&amp;nbsp;&lt;/span&gt;&lt;/div&gt;&lt;div&gt;&lt;br&gt;&lt;/div&gt;" style="text;strokeColor=none;fillColor=none;align=left;verticalAlign=top;spacingLeft=4;spacingRight=4;overflow=hidden;rotatable=0;points=[[0,0.5],[1,0.5]];portConstraint=eastwest;whiteSpace=wrap;html=1;rounded=1;" vertex="1" parent="lOeqmQKc_OwpCuId9KB0-66">
          <mxGeometry y="26" width="245" height="93" as="geometry" />
        </mxCell>
        <mxCell id="lOeqmQKc_OwpCuId9KB0-68" value="" style="line;strokeWidth=1;fillColor=none;align=left;verticalAlign=middle;spacingTop=-1;spacingLeft=3;spacingRight=3;rotatable=0;labelPosition=right;points=[];portConstraint=eastwest;strokeColor=inherit;rounded=1;" vertex="1" parent="lOeqmQKc_OwpCuId9KB0-66">
          <mxGeometry y="119" width="245" height="8" as="geometry" />
        </mxCell>
        <mxCell id="lOeqmQKc_OwpCuId9KB0-69" value="&lt;div&gt;+ AdicionarMensagem(mensagem: String): void&amp;nbsp;&lt;/div&gt;&lt;div&gt;&lt;span style=&quot;white-space: normal;&quot;&gt;+ ObterMensagens(): List&amp;lt;String&amp;gt;&lt;/span&gt;&lt;/div&gt;" style="text;strokeColor=none;fillColor=none;align=left;verticalAlign=top;spacingLeft=4;spacingRight=4;overflow=hidden;rotatable=0;points=[[0,0.5],[1,0.5]];portConstraint=eastwest;whiteSpace=wrap;html=1;rounded=1;" vertex="1" parent="lOeqmQKc_OwpCuId9KB0-66">
          <mxGeometry y="127" width="245" height="55" as="geometry" />
        </mxCell>
        <mxCell id="lOeqmQKc_OwpCuId9KB0-70" value="Orcamento" style="swimlane;fontStyle=1;align=center;verticalAlign=top;childLayout=stackLayout;horizontal=1;startSize=26;horizontalStack=0;resizeParent=1;resizeParentMax=0;resizeLast=0;collapsible=1;marginBottom=0;whiteSpace=wrap;html=1;rounded=1;" vertex="1" parent="WIyWlLk6GJQsqaUBKTNV-1">
          <mxGeometry x="2114" y="161" width="308" height="224" as="geometry" />
        </mxCell>
        <mxCell id="lOeqmQKc_OwpCuId9KB0-71" value="&lt;div&gt;- id: int (private)&lt;/div&gt;&lt;div&gt;- descricao: String&amp;nbsp;&lt;/div&gt;&lt;div&gt;- custo: double&amp;nbsp;&lt;/div&gt;&lt;div&gt;- veiculo: Ve칤culo&amp;nbsp;&lt;/div&gt;&lt;div&gt;- diagnostico: Diagn칩stico&amp;nbsp;&lt;/div&gt;" style="text;strokeColor=none;fillColor=none;align=left;verticalAlign=top;spacingLeft=4;spacingRight=4;overflow=hidden;rotatable=0;points=[[0,0.5],[1,0.5]];portConstraint=eastwest;whiteSpace=wrap;html=1;rounded=1;" vertex="1" parent="lOeqmQKc_OwpCuId9KB0-70">
          <mxGeometry y="26" width="308" height="86" as="geometry" />
        </mxCell>
        <mxCell id="lOeqmQKc_OwpCuId9KB0-72" value="" style="line;strokeWidth=1;fillColor=none;align=left;verticalAlign=middle;spacingTop=-1;spacingLeft=3;spacingRight=3;rotatable=0;labelPosition=right;points=[];portConstraint=eastwest;strokeColor=inherit;rounded=1;" vertex="1" parent="lOeqmQKc_OwpCuId9KB0-70">
          <mxGeometry y="112" width="308" height="8" as="geometry" />
        </mxCell>
        <mxCell id="lOeqmQKc_OwpCuId9KB0-73" value="&lt;div&gt;+CriarOrcamento(descricao: String, custo: double): void&amp;nbsp;&lt;/div&gt;&lt;div&gt;+ AtualizarOrcamento(id: int, descricao: String, custo: double): void&lt;/div&gt;" style="text;strokeColor=none;fillColor=none;align=left;verticalAlign=top;spacingLeft=4;spacingRight=4;overflow=hidden;rotatable=0;points=[[0,0.5],[1,0.5]];portConstraint=eastwest;whiteSpace=wrap;html=1;rounded=1;" vertex="1" parent="lOeqmQKc_OwpCuId9KB0-70">
          <mxGeometry y="120" width="308" height="104" as="geometry" />
        </mxCell>
        <mxCell id="lOeqmQKc_OwpCuId9KB0-74" value="Pagamento" style="swimlane;fontStyle=1;align=center;verticalAlign=top;childLayout=stackLayout;horizontal=1;startSize=26;horizontalStack=0;resizeParent=1;resizeParentMax=0;resizeLast=0;collapsible=1;marginBottom=0;whiteSpace=wrap;html=1;rounded=1;" vertex="1" parent="WIyWlLk6GJQsqaUBKTNV-1">
          <mxGeometry x="1792" y="847" width="181" height="236" as="geometry" />
        </mxCell>
        <mxCell id="lOeqmQKc_OwpCuId9KB0-75" value="&lt;div&gt;- id: int&amp;nbsp;&lt;/div&gt;&lt;div&gt;&lt;span style=&quot;white-space: normal;&quot;&gt;- valor: double&amp;nbsp;&lt;/span&gt;&lt;/div&gt;&lt;div&gt;&lt;span style=&quot;white-space: normal;&quot;&gt;- metodo: String&amp;nbsp;&lt;/span&gt;&lt;/div&gt;&lt;div&gt;&lt;span style=&quot;white-space: normal;&quot;&gt;- data: Date&amp;nbsp;&lt;/span&gt;&lt;/div&gt;&lt;div&gt;&lt;span style=&quot;white-space: normal;&quot;&gt;- usuario: Usu치rio&lt;/span&gt;&lt;/div&gt;" style="text;strokeColor=none;fillColor=none;align=left;verticalAlign=top;spacingLeft=4;spacingRight=4;overflow=hidden;rotatable=0;points=[[0,0.5],[1,0.5]];portConstraint=eastwest;whiteSpace=wrap;html=1;rounded=1;" vertex="1" parent="lOeqmQKc_OwpCuId9KB0-74">
          <mxGeometry y="26" width="181" height="84" as="geometry" />
        </mxCell>
        <mxCell id="lOeqmQKc_OwpCuId9KB0-76" value="" style="line;strokeWidth=1;fillColor=none;align=left;verticalAlign=middle;spacingTop=-1;spacingLeft=3;spacingRight=3;rotatable=0;labelPosition=right;points=[];portConstraint=eastwest;strokeColor=inherit;rounded=1;" vertex="1" parent="lOeqmQKc_OwpCuId9KB0-74">
          <mxGeometry y="110" width="181" height="8" as="geometry" />
        </mxCell>
        <mxCell id="lOeqmQKc_OwpCuId9KB0-77" value="&lt;div&gt;+ RealizarPagamento(valor: double, metodo: String): void&amp;nbsp;&lt;/div&gt;&lt;div&gt;&lt;span style=&quot;white-space: normal;&quot;&gt;+ VerificarPagamento(id: int): boolean&lt;/span&gt;&lt;/div&gt;" style="text;strokeColor=none;fillColor=none;align=left;verticalAlign=top;spacingLeft=4;spacingRight=4;overflow=hidden;rotatable=0;points=[[0,0.5],[1,0.5]];portConstraint=eastwest;whiteSpace=wrap;html=1;rounded=1;" vertex="1" parent="lOeqmQKc_OwpCuId9KB0-74">
          <mxGeometry y="118" width="181" height="118" as="geometry" />
        </mxCell>
        <mxCell id="lOeqmQKc_OwpCuId9KB0-78" value="Oficina" style="swimlane;fontStyle=1;align=center;verticalAlign=top;childLayout=stackLayout;horizontal=1;startSize=26;horizontalStack=0;resizeParent=1;resizeParentMax=0;resizeLast=0;collapsible=1;marginBottom=0;whiteSpace=wrap;html=1;rounded=1;" vertex="1" parent="WIyWlLk6GJQsqaUBKTNV-1">
          <mxGeometry x="2135" y="812" width="294" height="210" as="geometry" />
        </mxCell>
        <mxCell id="lOeqmQKc_OwpCuId9KB0-79" value="- id: int&lt;div&gt;- nome: String&lt;/div&gt;&lt;div&gt;- endereco: String&lt;/div&gt;&lt;div&gt;- telefone: String&lt;/div&gt;" style="text;strokeColor=none;fillColor=none;align=left;verticalAlign=top;spacingLeft=4;spacingRight=4;overflow=hidden;rotatable=0;points=[[0,0.5],[1,0.5]];portConstraint=eastwest;whiteSpace=wrap;html=1;rounded=1;" vertex="1" parent="lOeqmQKc_OwpCuId9KB0-78">
          <mxGeometry y="26" width="294" height="86" as="geometry" />
        </mxCell>
        <mxCell id="lOeqmQKc_OwpCuId9KB0-80" value="" style="line;strokeWidth=1;fillColor=none;align=left;verticalAlign=middle;spacingTop=-1;spacingLeft=3;spacingRight=3;rotatable=0;labelPosition=right;points=[];portConstraint=eastwest;strokeColor=inherit;rounded=1;" vertex="1" parent="lOeqmQKc_OwpCuId9KB0-78">
          <mxGeometry y="112" width="294" height="8" as="geometry" />
        </mxCell>
        <mxCell id="lOeqmQKc_OwpCuId9KB0-81" value="+AdcionarConserto(conserto: Conserto): void&lt;div&gt;+RemoverConserto(concerto: Conserto): void&lt;/div&gt;" style="text;strokeColor=none;fillColor=none;align=left;verticalAlign=top;spacingLeft=4;spacingRight=4;overflow=hidden;rotatable=0;points=[[0,0.5],[1,0.5]];portConstraint=eastwest;whiteSpace=wrap;html=1;rounded=1;" vertex="1" parent="lOeqmQKc_OwpCuId9KB0-78">
          <mxGeometry y="120" width="294" height="90" as="geometry" />
        </mxCell>
        <mxCell id="lOeqmQKc_OwpCuId9KB0-82" style="edgeStyle=orthogonalEdgeStyle;rounded=1;orthogonalLoop=1;jettySize=auto;html=1;exitX=0.5;exitY=0;exitDx=0;exitDy=0;entryX=0.452;entryY=0.994;entryDx=0;entryDy=0;entryPerimeter=0;" edge="1" parent="WIyWlLk6GJQsqaUBKTNV-1" source="lOeqmQKc_OwpCuId9KB0-42" target="lOeqmQKc_OwpCuId9KB0-49">
          <mxGeometry relative="1" as="geometry" />
        </mxCell>
        <mxCell id="lOeqmQKc_OwpCuId9KB0-83" style="edgeStyle=orthogonalEdgeStyle;rounded=1;orthogonalLoop=1;jettySize=auto;html=1;entryX=-0.021;entryY=0.074;entryDx=0;entryDy=0;entryPerimeter=0;" edge="1" parent="WIyWlLk6GJQsqaUBKTNV-1" source="lOeqmQKc_OwpCuId9KB0-49" target="lOeqmQKc_OwpCuId9KB0-59">
          <mxGeometry relative="1" as="geometry" />
        </mxCell>
        <mxCell id="lOeqmQKc_OwpCuId9KB0-84" style="edgeStyle=orthogonalEdgeStyle;rounded=1;orthogonalLoop=1;jettySize=auto;html=1;" edge="1" parent="WIyWlLk6GJQsqaUBKTNV-1" source="lOeqmQKc_OwpCuId9KB0-47" target="lOeqmQKc_OwpCuId9KB0-73">
          <mxGeometry relative="1" as="geometry" />
        </mxCell>
        <mxCell id="lOeqmQKc_OwpCuId9KB0-85" style="edgeStyle=orthogonalEdgeStyle;rounded=1;orthogonalLoop=1;jettySize=auto;html=1;exitX=1;exitY=0.5;exitDx=0;exitDy=0;entryX=0;entryY=0.5;entryDx=0;entryDy=0;" edge="1" parent="WIyWlLk6GJQsqaUBKTNV-1" source="lOeqmQKc_OwpCuId9KB0-51" target="lOeqmQKc_OwpCuId9KB0-71">
          <mxGeometry relative="1" as="geometry" />
        </mxCell>
        <mxCell id="lOeqmQKc_OwpCuId9KB0-86" style="edgeStyle=orthogonalEdgeStyle;rounded=1;orthogonalLoop=1;jettySize=auto;html=1;exitX=0;exitY=0.5;exitDx=0;exitDy=0;entryX=1;entryY=0.5;entryDx=0;entryDy=0;" edge="1" parent="WIyWlLk6GJQsqaUBKTNV-1" source="lOeqmQKc_OwpCuId9KB0-43" target="lOeqmQKc_OwpCuId9KB0-55">
          <mxGeometry relative="1" as="geometry" />
        </mxCell>
        <mxCell id="lOeqmQKc_OwpCuId9KB0-87" style="edgeStyle=orthogonalEdgeStyle;rounded=1;orthogonalLoop=1;jettySize=auto;html=1;exitX=0;exitY=0;exitDx=0;exitDy=0;entryX=0.507;entryY=1.011;entryDx=0;entryDy=0;entryPerimeter=0;" edge="1" parent="WIyWlLk6GJQsqaUBKTNV-1" source="lOeqmQKc_OwpCuId9KB0-42" target="lOeqmQKc_OwpCuId9KB0-69">
          <mxGeometry relative="1" as="geometry">
            <Array as="points">
              <mxPoint x="1722" y="574" />
              <mxPoint x="1645" y="574" />
              <mxPoint x="1645" y="504" />
              <mxPoint x="1482" y="504" />
            </Array>
          </mxGeometry>
        </mxCell>
        <mxCell id="lOeqmQKc_OwpCuId9KB0-88" style="edgeStyle=orthogonalEdgeStyle;rounded=1;orthogonalLoop=1;jettySize=auto;html=1;exitX=0.5;exitY=0;exitDx=0;exitDy=0;entryX=0.443;entryY=1.007;entryDx=0;entryDy=0;entryPerimeter=0;" edge="1" parent="WIyWlLk6GJQsqaUBKTNV-1" source="lOeqmQKc_OwpCuId9KB0-78" target="lOeqmQKc_OwpCuId9KB0-61">
          <mxGeometry relative="1" as="geometry">
            <Array as="points">
              <mxPoint x="2282" y="693" />
              <mxPoint x="2281" y="693" />
            </Array>
          </mxGeometry>
        </mxCell>
        <mxCell id="lOeqmQKc_OwpCuId9KB0-89" style="edgeStyle=orthogonalEdgeStyle;rounded=1;orthogonalLoop=1;jettySize=auto;html=1;entryX=0.25;entryY=0;entryDx=0;entryDy=0;" edge="1" parent="WIyWlLk6GJQsqaUBKTNV-1" source="lOeqmQKc_OwpCuId9KB0-45" target="lOeqmQKc_OwpCuId9KB0-74">
          <mxGeometry relative="1" as="geometry" />
        </mxCell>
        <mxCell id="lOeqmQKc_OwpCuId9KB0-92" value="MODEL" style="rounded=0;whiteSpace=wrap;html=1;" vertex="1" parent="WIyWlLk6GJQsqaUBKTNV-1">
          <mxGeometry x="1218" y="24" width="120" height="60" as="geometry" />
        </mxCell>
      </root>
    </mxGraphModel>
  </diagram>
</mxfile>
